<?xml version="1.0" standalone="no"?><!DOCTYPE svg PUBLIC "-//W3C//DTD SVG 1.1//EN" "http://www.w3.org/Graphics/SVG/1.1/DTD/svg11.dtd"><svg class="icon" width="200px" height="199.61px" viewBox="0 0 1026 1024" version="1.1" xmlns="http://www.w3.org/2000/svg"><path fill="#ffffff" d="M377.7713 355.555556H155.335745V398.222222h222.435555z m415.288889 73.386666l-274.204444-295.822222H88.775745A88.746667 88.746667 0 0 0 0.029078 221.866667v711.111111A88.746667 88.746667 0 0 0 88.775745 1024H711.140189a88.746667 88.746667 0 0 0 88.746667-88.746667V444.302222l-7.964445-7.964444zM533.077967 214.471111l194.56 207.644445h-150.186667a44.373333 44.373333 0 0 1-44.373333-44.373334V214.471111z m221.866667 718.506667a44.373333 44.373333 0 0 1-44.373334 44.373333H88.775745a44.373333 44.373333 0 0 1-44.373334-44.373333V221.866667a44.373333 44.373333 0 0 1 44.373334-44.373334h398.222222v200.248889a88.746667 88.746667 0 0 0 90.453333 88.746667h177.493334v466.488889zM377.7713 488.675556H155.335745v44.373333h222.435555z m-222.435555 311.182222h488.675555v-44.373334H155.335745z m858.453333-496.64v-7.964445L739.584634 0H311.2113a88.746667 88.746667 0 0 0-88.746666 88.746667h44.373333a44.373333 44.373333 0 0 1 44.373333-44.373334h398.222222V244.622222a88.746667 88.746667 0 0 0 88.746667 88.746667h177.493333v466.488889a44.373333 44.373333 0 0 1-44.373333 44.373333h-87.04v44.373333h88.746667a88.746667 88.746667 0 0 0 91.022222-88.746666V311.182222z m-214.471111-14.222222a44.373333 44.373333 0 0 1-44.373333-44.373334V81.351111l195.128888 207.644445zM155.335745 666.168889h488.675555v-44.373333H155.335745z m0 0" /></svg>