<?xml version="1.0" standalone="no"?><!DOCTYPE svg PUBLIC "-//W3C//DTD SVG 1.1//EN" "http://www.w3.org/Graphics/SVG/1.1/DTD/svg11.dtd"><svg t="1533543425129" class="icon" style="" viewBox="0 0 1176 1024" version="1.1" xmlns="http://www.w3.org/2000/svg" p-id="2299" xmlns:xlink="http://www.w3.org/1999/xlink" width="229.6875" height="200"><defs><style type="text/css"></style></defs><path d="M215.34309376 971.8977027792594l-16.751394815999998-16.75712557511111v-367.25269875674076l194.8159144391111-170.69459349807406c107.144740864-93.88345965985184 197.36042973866665-170.69459349807406 200.47230354014815-170.69459349807406 7.736703203555554 0 383.2877329066667 328.7411103668148 390.1132235662223 341.49234308740733 3.123335319703703 5.834047488 5.461539650370369 86.56511158044445 5.461539650370369 188.67812943644446v178.47141322903704l-16.75712557511111 16.751394815999998-16.751394815999998 16.75712557511111H702.9101212254816v-275.08277612088887h-217.77386336711112v275.08277612088887H232.094488576l-16.751394815999998-16.75712557511111zM70.22546799881485 532.8369381831111c-14.504885058370368-17.805878765037036-26.367830698666662-38.22504436622222-26.367830698666662-45.37146603140741 0-18.36177574874074 497.2923501985185-458.9870739911111 528.6747104142222-468.42585148681474 38.013001424592595-11.438858543407406 55.566720720592585-1.1633707994074074 167.62856698311109 98.10139545600002l103.1560402868148 91.37905967407407 1.570264405333333-94.19865869274075 1.570264405333333-94.19865747911109h64.62152886044444c42.614906576592595 0 66.95973197748148 2.338203117037037 71.49859877925925 6.8770687051851835 4.997337239703703 4.997337239703703 6.877069918814814 47.9389043674074 6.8770687051851835 157.27857815703703 0 174.99276234903704-11.301317897481482 145.69644578133335 90.26153616118519 234.04959546785184 44.145054454518515 38.39697078044445 64.47252548266667 59.90500488533332 64.46679472355557 68.19760385896296 0 6.670757736296296-11.765519094518519 27.10711561481481-26.144325025185186 45.42304407703704-20.688517347555553 26.350637207703702-28.998309812148147 32.92970037096296-39.852617576296296 31.519900861629626-8.424410074074073-1.0888697173333335-103.64889770666666-81.43596324029632-246.6346325333333-208.0886583751111-128.10260995792592-113.47164577185184-234.99519256651854-206.31208178725925-237.54543862518517-206.31208178725925-2.544515299555555 0-109.46002094459259 92.84043722903704-237.59701788444445 206.31208178725925-139.2320014411852 123.30012338251854-238.37068735525924 207.01698214874074-246.39393458251848 208.06573533866666-10.390105353481482 1.3639522228148144-19.38187392948148-5.558964982518519-39.789576798814814-30.608689531259255z" p-id="2300" fill="#ffffff"></path><path d="M227.35504156444443 981.284903442963c-27.29050354725926-13.811447428740738-28.59141620622222-23.416421793185183-28.68311077925926-212.2836711348148l-0.08023184118518518-176.6661828456296 15.759950430814813-15.553638248296297c8.66510802488889-8.556219960888887 97.63719304533333-87.21270192355557 197.715745298963-174.7921809256296l181.95579486814813-159.2385414637037 181.95579486814813 158.65399068444444c100.07282149451854 87.26427996918517 189.1480626062222 166.2703455194074 197.94498051792593 175.57731312829628l15.983456104296296 16.92332123022222-1.66195897837037 183.5432515508148-1.6619577647407406 183.54898230992592-16.206960564148147 13.937527770074073-16.206960564148147 13.931797010962963-124.19987319466667-1.5473413688888886-124.19414243555553-1.535878637037037-1.535878637037037-138.97411121303702-1.535878637037037-138.9741099994074H485.13625785837036v280.813666304l-121.78143823644444-0.0859626002962963c-86.16394873362962-0.05730880474074074-125.94206401422218-2.1892009528888887-135.9940472983704-7.278231552zM70.15096570311113 531.6105266062222c-25.834857965037035-32.48269145125926-30.201795925333332-43.778277376-21.909196951703702-56.724360760888885 2.3152800805925926-3.621923498666667 113.8154986002963-103.80936260266665 247.7750802962963-222.64512147911108 149.63356831288888-132.7389008782222 253.28819677866667-220.5132305445926 268.7787954631111-227.60234340503706 34.44265597155555-15.765681189925921 58.54105387614814-7.91436037688889 108.21068754488887 35.244981665185186a41788.87901548089 41788.87901548089 0 0 1 104.40537490014815 91.24151781451853l65.90524802844445 57.77311395081482 2.865446305185185-92.95505483851852 2.865445091555556-92.95505483851852 62.9595710957037-1.639034728296296c54.23715426607407-1.4097995093333333 63.96820775822221-0.26362098725925925 70.2034168794074 8.258214418962963 5.398500086518519 7.3813876432592584 7.243846997333334 48.13948579081481 7.243845783703702 159.9950198708148v150.09777072355556l74.62766485807406 65.14877083496296c41.04464217125926 35.835261989925925 76.10623469037039 70.82808418607407 77.91719704651851 77.7681924551111 4.2637830826666665 16.36169470103703-44.68375794725925 81.94601293748148-61.171532989629625 81.94601293748148-6.10912999348148 0-41.41715000888888-26.75180005451852-78.46163129837036-59.440802474666654s-143.34678114607408-126.82462154903703-236.22733368888888-209.17752809244448C673.264222283852 213.5861833576297 595.7940353706668 146.20809625600006 593.9716114962964 146.20809625600006c-1.82242387437037 0-89.59102156800002 76.49020404622223-195.04514965807408 169.98396237748148a210642.68736587852 210642.68736587852 0 0 1-236.1872183751111 209.17752809244448c-24.447981492148145 21.55388139140741-49.38308964503704 39.193564501333334-55.4119865837037 39.193564501333334-6.481637831111112 0-21.66276824177778-13.461863841185185-37.17056041718518-32.95262462103703z" p-id="2301" fill="#ffffff"></path><path d="M227.35504156444443 981.3479430068148c-27.296234306370366-13.926065038222223-28.59141620622222-23.508115152592595-28.68311077925926-212.1690535253333-0.08023305481481482-175.5085415917037-0.01146151822222222-176.55729478162962 12.814273498074073-189.13087032888885 41.457266536296295-40.66067281540741 376.75451702992586-330.68388260977775 382.3020192805926-330.68388260977775 9.221003794962963 0 379.6371543988148 324.00739411437036 388.41687881955556 339.75015226785183 5.157802135703704 9.26112032237037 7.100574378666666 58.139891029333334 7.163613942518519 180.51161080414812 0.09169457303703703 184.2080353848889-2.613286836148148 202.3291131828148-31.835099894518514 213.44130996148147-9.049077380740739 3.4385343525925918-63.469619579259266 5.174994413037037-133.51830232177778 4.258052323555556l-118.23974657896295-1.5473401552592592-1.535878637037037-138.97411121303702-1.535878637037037-138.97411121303702H485.336838068148l-1.535878637037037 138.97411121303702-1.5301478779259257 138.97411121303702-120.34871447703705 1.4097995093333333c-88.16402978133333 1.0315609125925924-124.15402590814814-0.5272419745185185-134.56132475259255-5.845509006222222zM70.12804266666666 529.6047147994074c-14.447576253629627-19.22140903348148-26.270405366518517-38.00727066548148-26.270405366518517-41.74381056 0-10.046252525037037 39.124794178370365-46.317061916444445 263.6209933274074-244.38812277570372a475080.40197977115 475080.40197977115 0 0 0 224.53058613096294-198.17421695051854c26.27613612562963-23.278879933629632 55.07386451437037-31.898140672 81.85431836444445-24.499559537777774 12.980467939555554 3.5818069712592595 56.07677041777777 37.25079225837037 124.64688211437036 97.36784008533331l104.80653774696296 91.88910937125927 2.865446305185185-93.52814409955555 2.865445091555556-93.53387485866666 62.9595710957037-1.6447654874074074c54.23715426607407-1.4097995093333333 63.96820775822221-0.26362098725925925 70.2034168794074 8.258214418962963 5.398500086518519 7.3813876432592584 7.243846997333334 48.150947309037036 7.243845783703702 160.06379019377775v150.1722718056296l47.279852506074064 41.795389819259256c71.86537585777778 63.53838990222223 107.45420913777778 98.71460003081481 107.45420913777778 106.2220680154074 0 13.026315226074074-52.40326887348148 76.70224698785185-63.12576553718519 76.70224698785185-5.8111232379259254 0-116.73825371022221-94.12988715614816-246.5028226465185-209.17752809244448-129.76456893629629-115.04763972266666-238.00391027674073-209.17752809244448-240.53696405807406-209.1775268788148-2.5387845404444445 0-110.77812588088888 94.12988715614816-240.54269481718515 209.1775268788148s-240.69169819496298 209.17752809244448-246.5028226465185 209.17752809244448c-6.246671853037036 0-21.318915413333333-14.304304848592592-36.849629411555554-34.95843642785185z" p-id="2302" fill="#ffffff"></path><path d="M215.7843719205926 971.4564246186667c-10.991849623703704-10.991849623703704-11.46178279348148-19.04375186014815-11.375818979555556-196.28302275318512 0.045847286518518514-101.65454741807406 1.98288877037037-187.57206744177776 4.298168850962963-190.9361007122963 8.768262902518519-12.734040443259257 379.28184005214814-334.8731633967408 385.16173361303703-334.8731646103704 11.28985516562963 0 381.1157242311111 327.7152802133333 387.2133927063704 343.11991629748155 3.919929040592593 9.90297990637037 4.8999119075555555 76.5532448237037 2.865446305185185 194.62106498844446-2.911292378074074 169.19310062933334-3.736541108148148 180.0302149025185-14.212610275555555 187.68668505125927-8.796917911703703 6.4185982672592585-37.28517802666667 8.126403318518518-136.0055100302222 8.126404532148149h-124.88184930607406l-1.535878637037037-136.10866612148146-1.535878637037037-136.10866490785187-110.31965544296297-1.558802887111111-110.31965422933332-1.5588016734814816v275.334935589926h-128.94505217896295c-121.30577309392591 0-129.62702707674075-0.6819761114074072-140.4068337588148-11.46178279348148z m-128.8590871514074-422.6532238222222C56.23063142400008 515.8906927028148 41.29592850962973 489.6833269001481 47.48529155792596 479.5568425339258c6.756720336592592-11.060619946666668 463.8067528438518-418.1487427887407 497.25223367111107-442.89473103644445 17.060863089777776-12.62515359288889 28.620070001777776-16.53362111525926 48.867309188740734-16.53362111525926 30.545649967407403 0 38.64339949037037 4.722254734222222 97.84350522785186 57.13125436681481a36832.322936528595 36832.322936528595 0 0 0 97.42515010370371 85.82582545066666l54.44346523496295 47.77843947140741 2.865446305185185-93.93503649185185 2.865445091555556-93.93503770548148 54.443466448592595-1.6848820148148147c29.943906910814814-0.9169420894814815 60.24312816829629-0.22923521896296295 67.33797057422221 1.5473413688888886l12.894505339259258 3.220760651851851v145.6505984948148c0 80.117858304 2.349665848888889 151.8456923022222 5.226573672296296 159.41046909155554 2.8769078234074072 7.564776789333333 37.88119032414815 42.84414179555555 77.80257822340741 78.39859173451852 39.90992638103704 35.56017948444445 73.96861178311111 68.29503040474074 75.676418048 72.74220141985185 5.203649422222223 13.570750691555554-47.921712090074074 82.28413500681481-63.61289219792593 82.28413500681481-4.183550027851851 0-113.8154986002963-94.12988715614816-243.63164558222218-209.17752809244448-129.8104162228148-115.04763972266666-238.33630158696292-209.17752809244448-241.1616313647407-209.1775268788148-2.8310605368888893 0-111.35121514192592 94.12988715614816-241.16736212385186 209.1775268788148s-239.44809434074074 209.17752809244448-243.62591482311115 209.17752809244448c-4.183550027851851 0-14.218341034666667-7.094843619555554-22.304627825777782-15.759950430814813z" p-id="2303" fill="#ffffff"></path><path d="M215.70414007940747 971.3761915638518c-11.163776037925924-11.163776037925924-11.490436589037039-17.708453432888888-10.029060247703704-199.1484678447407l1.5129556005925924-187.60072245096296 191.27422399525926-167.62856698311109C503.6642280485925 324.78839633540736 591.6563314157038 249.35840578370374 594.0231895419261 249.35840578370374c2.349665848888889 0 90.22715039288889 75.4299893380741 195.27438609066667 167.62856698311109 130.0912294874074 114.17081416059258 192.00777815229628 172.1960875804444 194.16832288237038 181.95579486814813 1.7536523377777775 7.879975822222222 1.8797326791111109 93.52241334044446 0.28654523733333337 190.3114334056296-2.7565582411851848 167.48529436444443-3.449997084444444 176.40829261748146-14.355882894222221 184.64358278637036-9.387199450074073 7.077650128592592-34.05868661570371 8.682300302222222-136.10866490785187 8.825572920888888l-124.646883328 0.18911869155555555v-275.08277612088887h-223.50475476385185v275.08277612088887h-128.94505217896295c-121.59804909037035 0-129.6041040402963-0.659053074962963-140.4870656-11.542014634666666zM72.71840525274075 529.8740677594074c-15.874568040296294-19.078136414814814-28.86076795259259-35.6289498074074-28.86076795259259-36.786591061333326 0-1.151909281185185 1.6046489599999998-6.298249898666667 3.576076212148148-11.427397025185183 4.470095265185185-11.656632244148147 477.1998463620741-431.0317866097777 505.68810526340724-448.61416091496295 24.43651997392592-15.089437051259257 51.74421579851852-16.50496610607407 76.03173360829629-3.942853290666667 9.553395105185185 4.940028434962963 51.33732340622223 39.10760190103704 92.85762950637036 75.93430827614816 41.52030610014814 36.820975616 85.7971716551111 75.82542142577778 98.39940099792591 86.67399843081482l22.906372096000002 19.725726757925926 2.865446305185185-94.22731248829629 2.865445091555556-94.22158172918517 54.443466448592595-1.6848820148148147c29.943906910814814-0.9169420894814815 60.24312816829629-0.22923521896296295 67.33797057422221 1.5473413688888886l12.894505339259258 3.220760651851851v148.62493165037037c0 96.29616385896297 2.217854748444444 153.25549181155557 6.303980657777778 161.78305676325922 3.467189361777778 7.243846997333334 31.972641754074072 35.09024631466666 63.34354045155555 61.8821628965926 58.89063746370369 50.28857021629629 90.81743193125926 82.49044718933334 90.81743193125926 91.59110382933333 0 8.682300302222222-57.19429393066666 74.60474182162963-64.73041571081481 74.60474060799999-3.85115871762963 0-114.71524841244442-95.41933829688888-246.37101154607404-212.042973184L593.7309135454816 140.48293561837036 446.3037384628147 271.3592973084444c-295.85152530962955 262.6467424331851-330.9360420788148 293.0949670684444-337.76726349748145 293.14654511407406-3.8225049220740734 0.028655009185185182-19.943501672296296-15.553638248296297-35.81806971259259-34.626043904z" p-id="2304" fill="#ffffff"></path><path d="M216.78154706488897 969.6511942352593c-12.26410727348148-13.04923947614815-12.458957937777777-16.229883600592593-12.458956724148148-197.37762322962962V588.1572301937779L397.4192369967407 418.75208783644445C503.62411273481473 325.5907208154073 592.000185457778 249.36413654281478 593.8111466002963 249.36413654281478c1.8109611425185186 0 90.27872843851851 76.18073577244444 196.59822178607405 169.29052596148148l193.31442035674073 169.30198626607407V957.9945607774816l-13.26701317688889 12.458957937777777c-12.779887729777778 12.006217045333333-17.828803015111113 12.464688696888889-137.54138745362962 12.464688696888889h-124.27437549037036v-275.08277612088887h-229.2356461605926v275.08277612088887H354.3229357321481c-123.33450915081481 0-125.2543571437037-0.18911990518518518-137.54138866725924-13.26701317688889zM79.61266744888894 537.341418002963c-37.01009552118519-44.54048654222221-38.545974158222215-49.853022814814814-20.092505050074074-69.51571000888889 24.958031189333333-26.60279667674074 469.7153026275555-418.20605280711106 492.6274054826665-433.7539590826666 23.22157112888889-15.759950430814813 51.82444885333333-18.006460188444446 75.10905954607406-5.902817810962962 8.510373888 4.429978737777777 59.314723346962964 46.92453694577778 112.89855651081481 94.43362467081481 53.58383195022222 47.509087725037034 100.5886019508148 86.44476199822222 104.45122218666667 86.51353232118518 5.192187904 0.09742533214814815 7.427234929777778-24.09266593185185 8.596336488296295-92.99517136592593l1.5759951644444445-93.12698125274073 56.460739773629626-1.6504962465185185c36.71208876562962-1.0716762263703703 59.26314530133334 0.6762453522962962 64.47252548266667 5.003067998814814 6.487368590222222 5.387037354666666 8.011785709037035 35.416906865777776 8.011785709037035 158.25282905125925v151.6049943514074l15.759951644444444 15.398905325037033c8.66510802488889 8.470257360592592 43.245304642370364 39.31964484266667 76.8397888474074 68.55865017837036 33.594484205037034 29.233275790222216 62.39221259377777 56.586818901333324 64.0025923128889 60.776100901925915 3.4729201208888885 9.05480813985185-10.218178939259259 32.19614621392593-37.29663954488888 63.039802936888876-15.656794339555553 17.828803015111113-21.67423097362963 21.267337367703703-29.548474823111114 16.86601363911111-5.4328846411851845-3.043103478518518-114.56624503466666-98.2274745837037-242.51412206933333-211.52146318222225C703.0075465576298 236.03408380207412 596.3843169090372 143.34264995081477 594.0059972645927 143.34264995081477c-2.3783196444444448 0-101.88378263703704 86.39318395259258-221.1207055739259 191.98485511585181-241.31636550162963 213.6934694305185-259.34574872651854 229.2356473742222-265.99931297185185 229.2356461605926-2.561708790518518 0-14.83154682311111-12.252645755259259-27.279042029037036-27.221733224296297z" p-id="2305" fill="#ffffff"></path><path d="M218.38619723851855 968.8488685416296l-14.06360689777778-14.069337656888887v-365.2755407454815L396.6914135988148 420.86678649362966c105.80371289125927-92.7544734151111 194.50644616533333-168.63720364562963 197.11400224237036-168.63720364562963 2.613286836148148 0 91.40771468325926 75.76238186192592 197.33177594311113 168.36785189925925l192.5865969588148 168.3678506856296v365.8142454518519l-14.069337656888887 14.069337656888887c-14.06360689777778 14.06360689777778-14.086529934222222 14.069337656888887-137.54138745362962 14.069338870518516h-123.47205101037036v-275.08277612088887h-229.2356461605926v275.08277612088887H355.9275846921481c-123.45485751940741 0-123.47778176948147 0-137.54138745362962-14.069338870518516zM84.41515402429633 541.4160823940742c-11.633709207703705-12.72830968414815-25.714508382814813-30.860849000296298-31.284934883555554-40.28816497777778l-10.126484366222222-17.135365385481478 19.05521216474074-17.811609524148146c10.476069167407406-9.799823815111111 124.14256438992592-110.94432274962963 252.59476036266665-224.76555210903703 156.09228310755555-138.33225162903702 240.96104994133333-209.69330733511111 255.912945133037-215.19496229925926 38.374047743999995-14.120915702518516 55.142634837333325-4.515942551703703 169.59426226251853 97.12141258903702 56.735822279111105 50.38599554844444 105.02431144770371 91.61402565214813 107.31093651911111 91.61975641125925 2.292357044148148 0.01146151822222222 4.871256898370369-43.182265078518526 5.73089139674074-95.97523406696295l1.5759951644444445-95.99242755792591 52.98208889362962-1.6504962465185185c82.23828772029628-2.555978031407407 75.96296207170371-15.954801095111108 75.96296207170371 162.22433613748146V335.13838516148144l15.759951644444444 16.825895898074073c8.66510802488889 9.255389563259259 42.83841103644445 40.471552910222215 75.9343070625185 69.36670784474073 33.09589602607407 28.89515372088888 62.09993659733333 55.93349779911111 64.44960244622222 60.08839281777777 4.733716252444444 8.349908992-41.42861274074074 73.93995798755554-55.967883567407405 79.5218460065185-5.73089139674074 2.194931712-59.13133541451851-41.42861274074074-158.86030286696297-129.78176121362964-303.70857809540735-269.07680221866667-328.2081376331852-290.5848363235556-331.01627392-290.6134913327407-1.5759951644444445-0.017192277333333332-110.62339174399999 95.37922176948149-242.32500216414815 211.98566437925925-131.70161042014814 116.61217336888888-240.96104994133333 212.02578090666663-242.7949353339259 212.02578090666663-1.8338853925925924 0-12.85438881185185-10.418760362666667-24.48809801955555-23.15280080592592z" p-id="2306" fill="#ffffff"></path></svg>