<?xml version="1.0" standalone="no"?><!DOCTYPE svg PUBLIC "-//W3C//DTD SVG 1.1//EN" "http://www.w3.org/Graphics/SVG/1.1/DTD/svg11.dtd"><svg t="1533637558692" class="icon" style="" viewBox="0 0 1024 1024" version="1.1" xmlns="http://www.w3.org/2000/svg" p-id="4022" xmlns:xlink="http://www.w3.org/1999/xlink" width="200" height="200"><defs><style type="text/css"></style></defs><path d="M919.388 90.491H104.865c-22.518 0-40.737 18.834-40.737 42.174v758.921c0 23.314 18.193 42.176 40.737 42.176h814.523c22.52 0 40.739-18.834 40.739-42.176v-758.92c0-23.312-18.193-42.175-40.739-42.175z m-17.789 58.833v559.139L775.037 566.135c-7.429-8.697-18.019-13.677-29.211-13.677s-21.857 4.957-29.209 13.677L615.203 685.059 307.697 324.238c-7.402-8.697-18.019-13.675-29.211-13.675-11.19 0-21.808 4.954-29.209 13.675L122.715 475.336V149.297h778.857l0.027 0.027zM667.94 471.854c64.478 0 116.843-54.133 116.843-120.964 0-66.827-52.338-120.96-116.843-120.96-64.576 0-116.841 54.133-116.841 120.96 0 66.831 52.265 120.964 116.841 120.964z m-0.005-187.693c35.513 0 64.45 29.934 64.45 66.721 0 36.79-28.937 66.725-64.45 66.725-35.577 0-64.45-29.934-64.45-66.725 0-36.787 28.873-66.721 64.45-66.721z" p-id="4023" fill="#169bd5"></path></svg>