<?xml version="1.0" standalone="no"?><!DOCTYPE svg PUBLIC "-//W3C//DTD SVG 1.1//EN" "http://www.w3.org/Graphics/SVG/1.1/DTD/svg11.dtd"><svg t="1533543637645" class="icon" style="" viewBox="0 0 1161 1024" version="1.1" xmlns="http://www.w3.org/2000/svg" p-id="4852" xmlns:xlink="http://www.w3.org/1999/xlink" width="226.7578125" height="200"><defs><style type="text/css"></style></defs><path d="M1143.347024 248.172801a96.649983 96.649983 0 0 0-42.525993-28.376435 103.260842 103.260842 0 0 1-3.324759 37.616174l-212.629963 665.647764a67.268388 67.268388 0 0 1-64.446209 40.206393H166.795593c-38.930613 0-87.796845-8.466539-101.985062-49.368811a30.077475 30.077475 0 0 1 0.73454-30.309435 32.899654 32.899654 0 0 1 27.061995-10.554178h615.389773c89.961804 0 108.247981-24.007856 141.650216-132.565117l194.034506-605.183535a109.369121 109.369121 0 0 0-12.719138-94.523684 97.191223 97.191223 0 0 0-80.760726-40.747633h-538.920306a157.810093 157.810093 0 0 0-36.108434 6.533539l0.69588-2.16496c-89.923144-25.244976-95.606163 73.453987-125.335698 118.53154a187.114368 187.114368 0 0 0-31.159955 45.077552c-2.1263 13.105738 4.948479 24.781056 3.51806 35.992454a227.088801 227.088801 0 0 1-49.562112 104.381982 94.987604 94.987604 0 0 0-31.159954 26.636735 220.555262 220.555262 0 0 0 1.430419 42.294033 423.481566 423.481566 0 0 1-47.435811 128.312517 185.567968 185.567968 0 0 0-24.085176 35.953794c-3.556719 11.984598 3.518059 27.487255 0 40.902273a732.877493 732.877493 0 0 1-43.144553 129.008398 184.485488 184.485488 0 0 0-22.229496 47.938391c-1.08248 8.466539 3.865999 17.628957 3.24744 28.879015-0.54124 16.933077-2.7062 30.927995-3.866 45.116212a156.456993 156.456993 0 0 0 1.08248 89.536545 161.366812 161.366812 0 0 0 159.008552 100.786602h653.663167a152.165734 152.165734 0 0 0 140.915675-76.817406l195.696887-631.472331a62.667849 62.667849 0 0 0-13.028418-67.384368z m-754.140489 1.31444l14.884097-42.216713a33.904814 33.904814 0 0 1 29.729535-21.108356h430.595005a14.961417 14.961417 0 0 1 15.463998 21.108356l-14.884098 42.216713a33.904814 33.904814 0 0 1-29.729535 21.108356H404.670532a14.961417 14.961417 0 0 1-15.463997-21.108356z m-58.76319 149.807474l14.884097-45.116212a34.407394 34.407394 0 0 1 29.729535-22.964036h430.517685a16.082557 16.082557 0 0 1 15.463998 22.964036l-14.845438 45.116212a34.098114 34.098114 0 0 1-29.768195 22.538776H345.984662a15.773277 15.773277 0 0 1-15.463997-22.538776z" p-id="4853" fill="#ffffff"></path></svg>