<?xml version="1.0" standalone="no"?><!DOCTYPE svg PUBLIC "-//W3C//DTD SVG 1.1//EN" "http://www.w3.org/Graphics/SVG/1.1/DTD/svg11.dtd"><svg t="1533637607890" class="icon" style="" viewBox="0 0 1024 1024" version="1.1" xmlns="http://www.w3.org/2000/svg" p-id="4744" xmlns:xlink="http://www.w3.org/1999/xlink" width="200" height="200"><defs><style type="text/css"></style></defs><path d="M405.804864 408.518161 405.804864 408.518161l-3.288906 3.185552c-75.466786 75.518974-69.097728 194.708564 6.371104 270.328845l175.081551 175.085644c75.573209 75.518974 199.179388 75.518974 274.749528 0l3.288906-3.238764c75.572186-75.518974 75.572186-199.227484 0-274.848789l-80.350003-75.16184c-2.412956-2.927679-5.188162-5.497201-8.220219-7.705496l-0.821715-0.772596c-0.050142 0.052189-0.050142 0.105401-0.050142 0.105401-6.885827-4.675486-15.205307-7.448646-24.197098-7.448646-23.736611 0-43.001373 19.262716-43.001373 42.998303 0 13.666254 6.371104 25.843598 16.285918 33.703613l77.369112 77.369112c41.048905 40.895409 41.048905 107.680465 0 148.729369l-3.288906 3.339048c-41.047882 40.99467-107.783819 40.99467-148.779511 0L471.870536 619.102297c-41.045835-40.99774-53.275367-111.63759-12.226462-152.633283l3.236718-3.238764c3.391237-3.440355 7.091512-6.472412 10.840906-9.55461 3.699252-2.261507 6.986111-5.13802 9.761318-8.477069l0 0 0 0c5.804193-6.885827 9.246595-15.72003 9.246595-25.38004 0-21.833261-17.723663-39.60809-39.556924-39.60809-10.738575 0-20.396539 4.210905-27.538193 11.095709l0 0C418.751734 396.59869 412.020426 402.252457 405.804864 408.518161M153.453463 151.750169 153.453463 151.750169c-75.622328 75.572186-75.622328 199.179388 0 274.801716l81.274048 74.955132c2.775206 3.493567 6.011924 6.523577 9.710153 8.988722l1.183965 1.080611c0.050142-0.101307 0.101307-0.153496 0.101307-0.25685 6.522554 4.006244 14.177907 6.318916 22.398126 6.318916 23.581068 0 42.640146-19.11229 42.640146-42.640146 0-14.025435-6.832615-26.560936-17.261129-34.317597l-77.163427-77.216639c-41.046858-40.945551-41.046858-107.73163 0-148.780535l3.235694-3.183506c41.048905-41.050951 107.783819-41.050951 148.727323 0l175.186951 175.030385c41.047882 41.046858 56.614415 100.692307 15.618723 141.742235l-3.185552 3.184529c-6.421246 6.370081-15.669888 13.100366-20.602224 24.249287l0 0c-2.362814 4.878101-3.697205 10.42749-3.697205 16.232706 0 20.653389 16.747429 37.399795 37.399795 37.399795 6.782473 0 13.101389-1.795902 18.59859-4.983501l0 0c0 0 0.050142 0 0.050142-0.051165 3.442402-2.054799 6.575766-4.519943 9.196453-7.448646 3.64604-3.082198 7.191796-6.371104 10.635221-9.761318l3.183506-3.182482c75.572186-75.624375 71.411423-184.79375-4.210905-260.315794L431.491896 148.513452c-75.622328-75.622328-199.22953-75.622328-274.851858 0L153.453463 151.750169M153.453463 151.750169" p-id="4745" fill="#169bd5"></path></svg>