<?xml version="1.0" standalone="no"?><!DOCTYPE svg PUBLIC "-//W3C//DTD SVG 1.1//EN" "http://www.w3.org/Graphics/SVG/1.1/DTD/svg11.dtd"><svg class="icon" width="200px" height="200.00px" viewBox="0 0 1024 1024" version="1.1" xmlns="http://www.w3.org/2000/svg"><path fill="#ffffff" d="M861.7 254.3c9.3 9.3 17.3 22 24 38 6.7 16 10 30.6 10 44v575.4c0 13.3-4.7 24.6-14 34-9.3 9.3-20.6 14-34 14H176.3c-13.3 0-24.6-4.7-34-14-9.3-9.3-14-20.6-14-34V112.4c0-13.3 4.7-24.6 14-34s20.6-14 34-14h447.6c13.3 0 28 3.3 44 10s28.6 14.7 38 24l155.8 155.9zM639.9 132.4v187.8h187.8c-3.3-9.7-7-16.5-11-20.5L660.4 143.4c-4-4-10.9-7.7-20.5-11z m191.8 763.2V384.1H623.9c-13.3 0-24.6-4.7-34-14-9.3-9.3-14-20.6-14-34V128.4H192.3v767.2h639.4zM336.2 778.7v52.9h163.3v-52.9H453v-83.4h68.4c25.3 0 45-2.5 58.9-7.5 22.3-7.7 40-22.1 53.2-43.5 13.2-21.3 19.7-45.6 19.7-72.9 0-27-6.2-50.5-18.5-70.4-12.3-20-29-34.5-50-43.5-16-6.3-37.6-9.5-64.9-9.5H336.2v53.4h46v277.2c-0.1 0.1-46 0.1-46 0.1z m176.3-139.8h-59.4V505H513c17.3 0 31.1 3 41.5 9 18.6 11 28 30.1 28 57.4 0 29.6-10.3 49.6-31 59.9-10.4 5.1-23.3 7.6-39 7.6z" /></svg>