<?xml version="1.0" standalone="no"?><!DOCTYPE svg PUBLIC "-//W3C//DTD SVG 1.1//EN" "http://www.w3.org/Graphics/SVG/1.1/DTD/svg11.dtd"><svg t="1533543725108" class="icon" style="" viewBox="0 0 1024 1024" version="1.1" xmlns="http://www.w3.org/2000/svg" p-id="8052" xmlns:xlink="http://www.w3.org/1999/xlink" width="200" height="200"><defs><style type="text/css"></style></defs><path d="M564.473095 386.612245l317.024353 0L514.419096 62.597687l0 275.405467C514.419096 364.848569 536.827455 386.612245 564.473095 386.612245zM464.362027 338.003154 464.362027 63.176878l-266.970354 0c-27.64564 0-50.058093 21.710464-50.058093 48.495504L147.33358 911.482367c0 26.78504 22.412452 48.499597 50.058093 48.499597l634.051777 0c27.64564 0 50.053999-21.714558 50.053999-48.499597L881.497449 435.214173 564.473095 435.214173C509.181815 435.214173 464.362027 391.690914 464.362027 338.003154zM228.907457 348.174817c0-22.527063 18.259876-40.786938 40.786938-40.786938l81.573877 0c22.527063 0 40.786938 18.259876 40.786938 40.786938 0 22.526039-18.259876 40.786938-40.786938 40.786938l-81.573877 0C247.167333 388.961756 228.907457 370.70188 228.907457 348.174817zM718.349695 837.618079 310.481334 837.618079c-22.527063 0-40.786938-18.259876-40.786938-40.786938 0-22.527063 18.259876-40.786938 40.786938-40.786938l407.868361 0c22.527063 0 40.786938 18.259876 40.786938 40.786938C759.136633 819.35718 740.875734 837.618079 718.349695 837.618079zM759.136633 592.896448c0 22.527063-18.259876 40.786938-40.786938 40.786938L310.481334 633.683387c-22.527063 0-40.786938-18.259876-40.786938-40.786938 0-22.526039 18.259876-40.786938 40.786938-40.786938l407.868361 0C740.875734 552.10951 759.136633 570.369386 759.136633 592.896448z" p-id="8053" fill="#ffffff"></path></svg>